HIERARCHY
ROOT Hips
{
	OFFSET 0.000000 0.000000 0.000000 
	CHANNELS 6 Xposition Yposition Zposition Zrotation Yrotation Xrotation
	JOINT LeftUpLeg
	{
		OFFSET 1.363060 -1.794630 0.839290 
		CHANNELS 3 Zrotation Yrotation Xrotation
		JOINT LeftLeg
		{
			OFFSET 2.448110 -6.726130 0.000000 
			CHANNELS 3 Zrotation Yrotation Xrotation
			JOINT LeftFoot
			{
				OFFSET 2.562200 -7.039590 0.000000 
				CHANNELS 3 Zrotation Yrotation Xrotation
				JOINT LeftToeBase
				{
					OFFSET 0.157640 -0.433110 2.322550 
					CHANNELS 3 Zrotation Yrotation Xrotation
					End Site
					{
						OFFSET 0.000000 0.000000 0.000000 
					}
				}
			}
		}
	}
	JOINT RightUpLeg
	{
		OFFSET -1.305520 -1.794630 0.839290 
		CHANNELS 3 Zrotation Yrotation Xrotation
		JOINT RightLeg
		{
			OFFSET -2.542530 -6.985550 0.000000 
			CHANNELS 3 Zrotation Yrotation Xrotation
			JOINT RightFoot
			{
				OFFSET -2.568260 -7.056230 0.000000 
				CHANNELS 3 Zrotation Yrotation Xrotation
				JOINT RightToeBase
				{
					OFFSET -0.164730 -0.452590 2.363150 
					CHANNELS 3 Zrotation Yrotation Xrotation
					End Site
					{
						OFFSET 0.000000 0.000000 0.000000 
					}
				}
			}
		}
	}
	JOINT Spine
	{
		OFFSET 0.028270 2.035590 -0.193380 
		CHANNELS 3 Zrotation Yrotation Xrotation
		JOINT Spine1
		{
			OFFSET 0.056720 2.048850 -0.042750 
			CHANNELS 3 Zrotation Yrotation Xrotation
			JOINT Neck1
			{
				OFFSET -0.054170 1.746240 0.172020 
				CHANNELS 3 Zrotation Yrotation Xrotation
				JOINT Head
				{
					OFFSET 0.104070 1.761360 -0.123970 
					CHANNELS 3 Zrotation Yrotation Xrotation
					End Site
					{
						OFFSET 0.000000 0.000000 0.000000 
					}
				}
			}
			JOINT LeftArm
			{
				OFFSET 3.362410 1.200890 -0.311210 
				CHANNELS 3 Zrotation Yrotation Xrotation
				JOINT LeftForeArm
				{
					OFFSET 4.983000 -0.000000 -0.000000 
					CHANNELS 3 Zrotation Yrotation Xrotation
					JOINT LeftHand
					{
						OFFSET 3.483560 -0.000000 -0.000000 
						CHANNELS 3 Zrotation Yrotation Xrotation
						JOINT LeftHandIndex1
						{
							OFFSET 0.715260 -0.000000 -0.000000 
							CHANNELS 3 Zrotation Yrotation Xrotation
							End Site
							{
								OFFSET 0.000000 0.000000 0.000000 
							}
						}
					}
				}
			}
			JOINT RightArm
			{
				OFFSET -3.136600 1.374050 -0.404650 
				CHANNELS 3 Zrotation Yrotation Xrotation
				JOINT RightForeArm
				{
					OFFSET -5.241900 -0.000000 -0.000000 
					CHANNELS 3 Zrotation Yrotation Xrotation
					JOINT RightHand
					{
						OFFSET -3.444170 -0.000000 -0.000000 
						CHANNELS 3 Zrotation Yrotation Xrotation
						JOINT RightHandIndex1
						{
							OFFSET -0.622530 -0.000000 -0.000000 
							CHANNELS 3 Zrotation Yrotation Xrotation
							End Site
							{
								OFFSET 0.000000 0.000000 0.000000 
							}
						}
					}
				}
			}
		}
	}
}
MOTION
Frames: 13
Frame Time: 0.041667
9.420152 17.615874 26.731814 -91.823549 -61.615615 104.028137 -6.050080 1.321341 -23.382678 -2.055249 9.839105 23.163271 2.286381 -1.522009 3.204546 5.171900 -13.574800 -41.560100 55.984733 -12.419058 -127.371962 -35.999571 -10.617626 149.482634 1.134154 -21.893082 34.413458 -0.238500 -3.143200 8.677700 0.418866 12.761732 -3.472456 10.157146 6.762369 -2.177159 14.469928 -3.087922 0.193767 3.133300 -0.404900 10.629200 -47.094062 -4.656655 -2.841261 17.545808 -22.092166 -5.816989 -1.999128 -0.786272 -22.086114 -7.125000 0.000000 0.000000 66.432586 10.207531 62.719643 -18.248847 18.752096 -4.097729 1.340427 1.497597 7.016517 7.125000 0.000000 0.000000 
9.413231 17.620928 26.721377 -91.190466 -61.519385 103.556865 -5.864147 1.237400 -23.495010 -2.062925 9.809307 23.042321 2.313223 -1.566961 3.143674 5.296500 -13.710100 -42.088600 56.393522 -12.270631 -127.643903 -36.022841 -10.534431 149.677527 1.102975 -22.027080 34.590852 -0.154100 -2.529200 6.970600 0.399483 12.696934 -3.512654 10.240770 6.740408 -2.179501 14.550070 -3.263537 0.248754 3.182000 -0.472500 10.679000 -46.324185 -4.686559 -3.716604 17.111851 -21.631143 -5.621714 -2.087529 -0.823328 -22.389200 -7.125000 0.000000 0.000000 66.549489 9.935047 62.552857 -18.376794 18.904736 -4.128390 1.303635 1.488583 6.781042 7.125000 0.000000 0.000000 
9.407518 17.628398 26.711928 -90.615726 -61.407205 103.129181 -5.666126 1.121466 -23.590338 -2.072008 9.771721 22.907992 2.325829 -1.574060 3.087118 5.402900 -13.823600 -42.535500 56.887331 -12.486572 -127.852729 -36.024764 -10.445591 149.822454 1.018289 -21.922025 34.723442 -0.150500 -2.499600 6.888500 0.370205 12.616639 -3.553191 10.268200 6.715974 -2.169227 14.661852 -3.356231 0.202825 3.257500 -0.508000 10.640800 -45.465165 -4.644532 -4.625869 16.704750 -21.203274 -5.444732 -2.155316 -0.867875 -22.697993 -7.125000 0.000000 0.000000 66.752330 9.734920 62.427488 -18.441280 18.991304 -4.134947 1.277024 1.467269 6.567309 7.125000 0.000000 0.000000 
9.403233 17.636199 26.702810 -90.219925 -61.253915 102.870788 -5.449831 1.070268 -23.679400 -2.070045 9.728988 22.782982 2.304755 -1.487101 3.043219 5.510900 -13.937100 -42.985900 57.354698 -12.645973 -127.960070 -36.025602 -10.393298 149.924005 0.932363 -21.710380 34.838525 -0.155500 -2.540800 7.002900 0.340731 12.625532 -3.594274 10.254259 6.737147 -2.202744 14.709573 -3.513179 0.210206 3.298900 -0.576700 10.657100 -44.877849 -4.687240 -5.750058 16.491267 -20.955994 -5.362936 -2.229542 -0.923776 -23.080947 -7.125000 0.000000 0.000000 66.934555 9.546582 62.232337 -18.425569 18.985979 -4.109724 1.253891 1.446815 6.481147 7.125000 0.000000 0.000000 
9.398729 17.643230 26.693581 -89.787775 -61.105709 102.568056 -5.234665 0.996580 -23.753940 -2.070778 9.683816 22.649853 2.285733 -1.406931 2.997796 5.620000 -14.049700 -43.436700 57.833231 -12.800448 -128.073484 -36.029846 -10.336067 150.032972 0.880355 -21.610035 34.893754 -0.155600 -2.541600 7.005000 0.313654 12.603160 -3.633271 10.264566 6.741848 -2.219951 14.757557 -3.638017 0.222691 3.341200 -0.629200 10.668500 -44.197641 -4.661879 -6.717764 16.232482 -20.673996 -5.263053 -2.300094 -0.986623 -23.500694 -7.125000 0.000000 0.000000 67.113346 9.361710 62.093138 -18.436405 19.009747 -4.094750 1.227932 1.426724 6.339630 7.125000 0.000000 0.000000 
9.394884 17.650591 26.684682 -89.419396 -60.944754 102.313731 -5.011752 0.918125 -23.807651 -2.068189 9.637271 22.521284 2.245030 -1.269379 2.940947 5.730100 -14.161600 -43.888700 58.330982 -13.006842 -128.132847 -36.032371 -10.289044 150.120087 0.834994 -21.485404 34.906756 -0.165500 -2.620700 7.224600 0.288158 12.588386 -3.670128 10.274364 6.750862 -2.237270 14.786492 -3.744684 0.246139 3.375000 -0.674300 10.684400 -43.559643 -4.596411 -7.655256 16.027354 -20.453516 -5.192063 -2.366380 -1.059186 -23.972917 -7.125000 0.000000 0.000000 67.290884 9.200990 61.987084 -18.423472 19.005161 -4.069676 1.201763 1.405611 6.219812 7.125000 0.000000 0.000000 
9.391588 17.657842 26.676332 -89.109352 -60.774550 102.098630 -4.786617 0.847760 -23.837870 -2.063923 9.584059 22.387632 2.194224 -1.106425 2.887738 5.835300 -14.266800 -44.317000 58.842350 -13.247746 -128.140759 -36.034641 -10.252127 150.190730 0.790506 -21.326982 34.898908 -0.176200 -2.704200 7.456200 0.264138 12.582887 -3.704606 10.283938 6.764241 -2.254124 14.794336 -3.849754 0.297312 3.394400 -0.717400 10.718800 -42.961617 -4.496396 -8.549492 15.870334 -20.288571 -5.147253 -2.430549 -1.137853 -24.468707 -7.125000 0.000000 0.000000 67.460814 9.057491 61.910884 -18.397157 18.983228 -4.038053 1.173036 1.384957 6.127035 7.125000 0.000000 0.000000 
9.388841 17.665313 26.668312 -88.852513 -60.597171 101.919533 -4.559319 0.782465 -23.843294 -2.058543 9.524193 22.248409 2.138317 -0.931773 2.842790 5.931500 -14.361600 -44.706200 59.365298 -13.520637 -128.096547 -36.037272 -10.224463 150.250339 0.740358 -21.115419 34.884888 -0.184600 -2.767100 7.631000 0.243794 12.579292 -3.735510 10.309509 6.777879 -2.265206 14.794308 -3.940645 0.364903 3.407600 -0.752700 10.763400 -42.400234 -4.349914 -9.394323 15.753080 -20.173517 -5.124970 -2.491852 -1.218623 -24.963815 -7.125000 0.000000 0.000000 67.610430 8.933387 61.893775 -18.366357 18.952374 -4.002626 1.140273 1.364446 6.065354 7.125000 0.000000 0.000000 
9.386424 17.672893 26.660402 -88.643465 -60.426796 101.770563 -4.338951 0.701579 -23.815055 -2.055285 9.458188 22.100006 2.073272 -0.736057 2.798705 6.017300 -14.445100 -45.051100 59.881392 -13.821187 -128.015503 -36.040251 -10.201994 150.304684 0.680814 -20.856049 34.879371 -0.188100 -2.793200 7.703600 0.224964 12.580726 -3.763249 10.348637 6.793299 -2.275200 14.801978 -4.028454 0.441373 3.422000 -0.784300 10.815100 -41.876724 -4.173648 -10.205905 15.671276 -20.101151 -5.123531 -2.554008 -1.293766 -25.403364 -7.125000 0.000000 0.000000 67.744222 8.821331 61.920554 -18.333592 18.915782 -3.964579 1.102915 1.343890 6.052784 7.125000 0.000000 0.000000 
9.384557 17.680693 26.652602 -88.471443 -60.261689 101.644047 -4.126409 0.623050 -23.764128 -2.054267 9.384216 21.939572 2.011841 -0.552493 2.774371 6.088000 -14.513100 -45.333800 60.382450 -14.132339 -127.904893 -36.044275 -10.183318 150.360395 0.612852 -20.554347 34.886168 -0.186100 -2.778500 7.662800 0.207148 12.591179 -3.788283 10.398777 6.812343 -2.286633 14.813777 -4.115455 0.524549 3.438000 -0.814500 10.874200 -41.383672 -3.981966 -10.980788 15.620008 -20.062887 -5.137860 -2.612387 -1.365017 -25.753891 -7.125000 0.000000 0.000000 67.858222 8.718806 61.980561 -18.301737 18.877684 -3.926024 1.061603 1.325043 6.101209 7.125000 0.000000 0.000000 
9.383018 17.688604 26.644252 -88.330622 -60.121919 101.540975 -3.934266 0.525713 -23.686373 -2.059654 9.303678 21.761985 1.946703 -0.362503 2.758745 6.146200 -14.568500 -45.565500 60.832768 -14.422333 -127.790871 -36.050139 -10.162925 150.427384 0.543363 -20.252719 34.907325 -0.178700 -2.722900 7.508200 0.189042 12.605337 -3.811428 10.466783 6.833744 -2.303075 14.836263 -4.201262 0.602238 3.455200 -0.843300 10.930400 -40.915966 -3.774025 -11.706845 15.593681 -20.052742 -5.163859 -2.663948 -1.441613 -26.025291 -7.125000 0.000000 0.000000 67.957203 8.623104 62.081863 -18.273159 18.840637 -3.889304 1.018433 1.308056 6.184583 7.125000 0.000000 0.000000 
9.381590 17.696734 26.635463 -88.211110 -60.011234 101.457828 -3.765065 0.408393 -23.589140 -2.072456 9.217313 21.564816 1.874339 -0.156819 2.750329 6.195900 -14.615500 -45.762800 61.219472 -14.677141 -127.690302 -36.058985 -10.136777 150.508135 0.493341 -20.033138 34.911167 -0.174700 -2.692700 7.424300 0.170427 12.624158 -3.833492 10.551956 6.858450 -2.327113 14.865292 -4.286984 0.671630 3.473200 -0.872800 10.981000 -40.478962 -3.560760 -12.400431 15.586774 -20.063995 -5.201412 -2.716896 -1.499474 -26.193870 -7.125000 0.000000 0.000000 68.043964 8.528871 62.200629 -18.247462 18.805173 -3.855642 0.975150 1.294784 6.293681 7.125000 0.000000 0.000000 
9.380601 17.705083 26.626125 -88.093373 -59.928734 101.379433 -3.617156 0.268136 -23.477881 -2.093319 9.125073 21.345841 1.797191 0.058519 2.751929 6.237100 -14.654200 -45.925900 61.549669 -14.923048 -127.622729 -36.070338 -10.099629 150.598986 0.454401 -19.910298 34.925029 -0.183900 -2.761900 7.616700 0.147558 12.658037 -3.855778 10.628879 6.891703 -2.364691 14.903329 -4.378399 0.715240 3.497400 -0.907600 11.015200 -40.054790 -3.373441 -13.031259 15.591091 -20.083214 -5.244129 -2.770137 -1.540782 -26.264144 -7.125000 0.000000 0.000000 68.130754 8.425088 62.292642 -18.226692 18.777385 -3.827466 0.935172 1.285466 6.370276 7.125000 0.000000 0.000000 
